PathFileType	4	(X/Y/Z)	/Users/itak/Documents/Research/Walk-IL/dataset/trc/00196_00008.trc
DataRate	CameraRate	NumFrames	NumMarkers	Units	OrigDataRate	OrigDataStartFrame	OrigNumFrames
100.000000	100.000000	4	53	mm	100.000000	309	826
Frame#	Time	RPSI			LPSI			L3			STRN			T10			C7			CLAV			RBAK			LBAK			LSHO			LUPA			LAEL			LAOL			LWTS			LWPS			LFRA			LIFD			LHPS			LHTS			RSHO			RUPA			RAEL			RAOL			RWTS			RWPS			RFRA			RIFD			RHTS			RHPS			RBHD			LFHD			RFHD			LBHD			LHIP			RHIP			RASI			LASI			LKNE			LTHI			LANK			LTIP			LTOE			LMT1			LMT5			LHEE			RKNE			RTHI			RANK			RTIP			RTOE			RMT1			RMT5			RHEE			
		X1	Y1	Z1	X2	Y2	Z2	X3	Y3	Z3	X4	Y4	Z4	X5	Y5	Z5	X6	Y6	Z6	X7	Y7	Z7	X8	Y8	Z8	X9	Y9	Z9	X10	Y10	Z10	X11	Y11	Z11	X12	Y12	Z12	X13	Y13	Z13	X14	Y14	Z14	X15	Y15	Z15	X16	Y16	Z16	X17	Y17	Z17	X18	Y18	Z18	X19	Y19	Z19	X20	Y20	Z20	X21	Y21	Z21	X22	Y22	Z22	X23	Y23	Z23	X24	Y24	Z24	X25	Y25	Z25	X26	Y26	Z26	X27	Y27	Z27	X28	Y28	Z28	X29	Y29	Z29	X30	Y30	Z30	X31	Y31	Z31	X32	Y32	Z32	X33	Y33	Z33	X34	Y34	Z34	X35	Y35	Z35	X36	Y36	Z36	X37	Y37	Z37	X38	Y38	Z38	X39	Y39	Z39	X40	Y40	Z40	X41	Y41	Z41	X42	Y42	Z42	X43	Y43	Z43	X44	Y44	Z44	X45	Y45	Z45	X46	Y46	Z46	X47	Y47	Z47	X48	Y48	Z48	X49	Y49	Z49	X50	Y50	Z50	X51	Y51	Z51	X52	Y52	Z52	X53	Y53	Z53	

310	3.09	-532.68310546875	1046.529541015625	211.8981628417969	-655.0350952148438	1057.241455078125	202.3101959228516	-590.50830078125	1090.12890625	205.8951416015625	-570.400390625	1289.931640625	-59.6821403503418	-597.8701171875	1254.453979492188	236.6479949951172	-595.04736328125	1519.860961914062	155.6558837890625	-578.967529296875	1405.38818359375	-38.35540390014648	-499.31591796875	1346.026489257812	242.4971313476562	-693.7781982421875	1499.344360351562	157.8073883056641	-764.3923950195312	1487.589965820312	76.89656066894531	-851.8010864257812	1367.333251953125	114.4779891967773	-904.7393798828125	1159.225952148438	110.1825714111328	-832.1490478515625	1132.016235351562	155.2100372314453	-923.9635009765625	936.4869995117188	-18.69556045532227	-957.1749267578125	913.9081420898438	65.86720275878906	-937.7921142578125	1053.284545898438	91.79364013671875	-931.6541137695312	750.9819946289062	-47.51728820800781	-967.0728149414062	847.2103271484375	39.42331314086914	-957.6777954101562	862.1095581054688	-31.90035057067871	-411.2948608398438	1489.550537109375	109.8694915771484	-348.2944030761719	1423.695434570312	141.9510192871094	-297.0129089355469	1136.756103515625	185.8445587158203	-392.3275756835938	1131.530151367188	175.9939880371094	-296.238525390625	924.4576416015625	22.68552207946777	-270.4505920410156	894.3963012695312	102.8377685546875	-276.9104309082031	1063.114379882812	158.8692321777344	-331.5631408691406	742.756591796875	-22.74609565734863	-287.6546020507812	833.3141479492188	-12.87716102600098	-274.0416259765625	815.2335815429688	64.25465393066406	-507.4128723144531	1671.519287109375	85.24991607666016	-591.31591796875	1703.120239257812	-113.5608978271484	-466.7103271484375	1687.540161132812	-83.84622192382812	-639.0436401367188	1697.5810546875	60.21444702148438	-769.8941040039062	1005.66552734375	94.24655914306641	-399.8531494140625	995.8880004882812	67.67555999755859	-449.4605102539062	1028.21044921875	-14.69202327728271	-709.8096923828125	1034.7626953125	-31.66706275939941	-744.188232421875	501.3023071289062	65.14140319824219	-766.7463989257812	646.7932739257812	66.37842559814453	-739.878662109375	36.94297409057617	177.970703125	-755.3779296875	274.7048950195312	115.4993591308594	-750.35595703125	41.94828796386719	-42.71512603759766	-696.3969116210938	45.7779426574707	-1.976779222488403	-797.0851440429688	29.08101463317871	80.19954681396484	-664.1728515625	42.45938110351562	218.8615264892578	-439.92529296875	530.5147094726562	-138.5986633300781	-396.4488525390625	791.2842407226562	-47.79056549072266	-529.0348510742188	90.83477020263672	90.53326416015625	-470.2789611816406	405.5086975097656	-127.0881500244141	-536.087890625	81.01274871826172	-121.6911315917969	-587.9197387695312	81.30989074707031	-79.9964599609375	-485.0528259277344	60.89527130126953	-11.52015209197998	-600.2659301757812	114.5496063232422	128.6562042236328	
311	3.1	-534.5340576171875	1046.059326171875	205.2950286865234	-656.5360717773438	1056.669799804688	194.7113342285156	-592.1347045898438	1089.598266601562	198.7310028076172	-569.3895263671875	1288.933837890625	-66.87737274169922	-600.576171875	1254.175537109375	228.8774108886719	-596.4948120117188	1519.372314453125	147.4316253662109	-577.9512939453125	1404.547119140625	-46.12824249267578	-502.2017517089844	1345.57275390625	235.9414215087891	-695.1954956054688	1499.010131835938	148.2968444824219	-764.71337890625	1487.369873046875	66.31813049316406	-853.2208862304688	1367.501708984375	102.2634658813477	-907.479248046875	1159.759765625	96.173583984375	-836.8451538085938	1131.581420898438	141.8173370361328	-926.07177734375	939.1878051757812	-36.21232986450195	-960.3268432617188	915.2804565429688	47.5460319519043	-940.7470703125	1054.172485351562	75.92617797851562	-935.029052734375	754.85400390625	-69.45714569091797	-970.423095703125	849.1498413085938	19.56357002258301	-960.2911987304688	865.6449584960938	-51.29676055908203	-412.235595703125	1488.540283203125	104.2259979248047	-349.9211120605469	1422.638793945312	137.3708343505859	-300.2466735839844	1135.67236328125	182.9429626464844	-395.4732055664062	1130.519775390625	171.5030975341797	-296.942138671875	923.1193237304688	20.18346214294434	-272.4853515625	893.13720703125	100.7959365844727	-279.8070678710938	1061.97900390625	156.4512176513672	-332.0722961425781	741.3341674804688	-25.47745895385742	-288.1754760742188	831.7891235351562	-14.93656921386719	-275.6097717285156	813.8786010742188	62.34054565429688	-507.7646484375	1670.611083984375	78.23422241210938	-588.4813232421875	1702.34033203125	-121.913459777832	-464.3926391601562	1686.492065429688	-90.19595336914062	-638.706787109375	1696.988891601562	51.79582977294922	-770.80126953125	1004.666198730469	86.33986663818359	-399.3862609863281	996.5299072265625	61.3425407409668	-448.7763671875	1028.000244140625	-20.8294677734375	-709.1355590820312	1033.773681640625	-39.48283004760742	-743.680908203125	500.7819519042969	63.11445236206055	-766.351806640625	646.1310424804688	62.09612655639648	-739.8150024414062	37.06716918945312	177.9385070800781	-755.0269775390625	274.6139221191406	114.7148818969727	-750.313232421875	41.92568206787109	-42.82693481445312	-695.955810546875	45.46969223022461	-1.872716188430786	-796.7383422851562	28.91547584533691	80.33158874511719	-664.19775390625	42.43167114257812	218.7822418212891	-437.4780578613281	533.3215942382812	-149.1859893798828	-395.6948852539062	791.7234497070312	-53.4036865234375	-529.4124145507812	83.29652404785156	58.98192596435547	-467.267578125	407.893798828125	-142.2380218505859	-529.4905395507812	82.76262664794922	-153.7864685058594	-582.8126220703125	80.91506195068359	-113.6267471313477	-481.7464294433594	58.74942398071289	-42.76796722412109	-602.8585815429688	104.1195297241211	96.02033233642578	
312	3.11	-536.1476440429688	1045.399169921875	198.5932464599609	-657.80029296875	1056.043579101562	186.9656372070312	-593.6688232421875	1088.965942382812	191.5362548828125	-568.4869995117188	1287.8076171875	-74.12776184082031	-603.1165161132812	1253.748046875	221.0789184570312	-597.7484130859375	1518.75244140625	139.2302856445312	-576.8863525390625	1403.64013671875	-53.85818099975586	-504.7475891113281	1344.991333007812	229.2976684570312	-696.3074951171875	1498.561889648438	138.9186401367188	-764.7901611328125	1487.017944335938	55.96063232421875	-854.356201171875	1367.535278320312	90.19230651855469	-909.87548828125	1160.19775390625	82.21453094482422	-840.8248291015625	1130.937622070312	128.6503753662109	-927.8363037109375	941.7477416992188	-53.50131988525391	-963.2490234375	916.6038208007812	29.33886528015137	-943.3623046875	1054.949829101562	60.11618423461914	-937.9947509765625	758.7341918945312	-91.04877471923828	-973.2736206054688	851.03857421875	-0.01920805498957634	-962.5755004882812	869.0771484375	-70.42540740966797	-412.9745788574219	1487.410278320312	98.46145629882812	-351.3758544921875	1421.413452148438	132.6075744628906	-303.4169006347656	1134.451171875	179.7811737060547	-398.5772705078125	1129.467651367188	166.7808532714844	-297.5741882324219	921.52197265625	17.62965202331543	-274.5328369140625	891.6895141601562	98.79345703125	-282.64794921875	1060.696533203125	153.8487243652344	-332.4422302246094	739.56005859375	-27.95291137695312	-288.5839538574219	829.9157104492188	-17.00438499450684	-277.1278686523438	812.2931518554688	60.58682250976562	-508.0132446289062	1669.634887695312	71.20114898681641	-585.55029296875	1701.4384765625	-130.2146911621094	-462.0099487304688	1685.32470703125	-96.54981231689453	-638.22998046875	1696.09423828125	43.7166633605957	-771.3241577148438	1003.356567382812	78.23096466064453	-398.7078247070312	996.9071044921875	54.89560699462891	-448.4700622558594	1027.598876953125	-27.07490539550781	-708.72314453125	1032.648559570312	-47.38412475585938	-743.27099609375	500.2345581054688	60.89224243164062	-765.858154296875	645.3980712890625	57.59963607788086	-739.7381591796875	37.14713287353516	177.9326171875	-754.1830444335938	274.2208557128906	114.1886444091797	-750.1757202148438	41.89905166625977	-42.87687683105469	-695.6198120117188	45.19173812866211	-1.787261366844177	-796.5507202148438	28.85371208190918	80.41336822509766	-664.0542602539062	42.47577667236328	218.8163299560547	-435.1112670898438	535.6800537109375	-159.1829986572266	-394.3572998046875	792.3726806640625	-59.72450256347656	-529.1668701171875	76.02684783935547	27.09881210327148	-463.9627685546875	410.0722961425781	-156.8851470947266	-522.1380615234375	84.97066497802734	-185.3877563476562	-576.9329223632812	80.86875152587891	-146.9456481933594	-477.9249267578125	56.77941513061523	-74.01721954345703	-604.2089233398438	94.35722351074219	62.98007583618164	
313	3.12	-537.4962158203125	1044.681396484375	191.8383331298828	-658.7594604492188	1055.736694335938	179.2602081298828	-595.1427001953125	1088.242553710938	184.3139038085938	-567.594482421875	1286.622924804688	-81.46343994140625	-605.4149780273438	1253.160522460938	213.2283325195312	-598.7606201171875	1518.008911132812	131.0415802001953	-575.759765625	1402.541381835938	-61.53997421264648	-507.1563110351562	1344.278442382812	222.4331207275391	-697.1784057617188	1498.032348632812	129.6690216064453	-764.666015625	1486.544311523438	45.77112579345703	-855.2114868164062	1367.434204101562	78.29880523681641	-911.924560546875	1160.533325195312	68.30597686767578	-844.0055541992188	1130.267944335938	115.3677749633789	-929.1376342773438	944.1820678710938	-70.5418701171875	-965.8096313476562	917.852783203125	11.28636455535889	-945.6707763671875	1055.608764648438	44.46994781494141	-940.3124389648438	762.4686889648438	-112.1616439819336	-975.6871337890625	852.8843994140625	-19.31275939941406	-964.4046020507812	872.3939819335938	-89.26937866210938	-413.5173645019531	1486.162353515625	92.58474731445312	-352.6577758789062	1420.02197265625	127.6582412719727	-306.5419616699219	1133.110595703125	176.3467559814453	-401.5729370117188	1128.348876953125	161.7921142578125	-298.1465454101562	919.662109375	15.06380844116211	-276.6072082519531	890.0545043945312	96.83566284179688	-285.405517578125	1059.275024414062	151.0671539306641	-332.6731262207031	737.3974609375	-30.17571067810059	-288.81884765625	827.7510375976562	-18.99977493286133	-278.6217651367188	810.4744262695312	58.98012924194336	-508.1279296875	1668.591430664062	64.14013671875	-582.5430908203125	1700.400024414062	-138.4676513671875	-459.5738830566406	1684.030029296875	-102.9188613891602	-637.746337890625	1695.067016601562	34.95951461791992	-771.5782470703125	1002.04150390625	69.95018005371094	-399.7050170898438	996.0062866210938	49.62538146972656	-448.8868408203125	1026.956176757812	-33.35075759887695	-708.423583984375	1031.415283203125	-55.3320426940918	-743.0147705078125	499.6893920898438	58.59489822387695	-765.580078125	644.5656127929688	53.1093635559082	-739.5869140625	37.15641021728516	177.9778900146484	-753.7139282226562	273.9867858886719	113.3550491333008	-750.0625610351562	41.68599319458008	-42.76863861083984	-695.4075927734375	45.05818176269531	-1.664090037345886	-796.2906494140625	28.77098655700684	80.54521942138672	-663.9348754882812	42.48733139038086	218.7935028076172	-432.5790710449219	537.578125	-168.5156555175781	-391.8696594238281	793.5991821289062	-67.03253173828125	-528.3777465820312	69.15829467773438	-4.916170597076416	-460.5309753417969	411.9879455566406	-171.0409698486328	-514.437255859375	87.56423950195312	-216.4174499511719	-570.278564453125	81.26094818115234	-179.8720245361328	-473.3269958496094	55.37752532958984	-105.0349960327148	-604.0345458984375	85.33896636962891	29.42577934265137	
